<?xml version="1.0" encoding="UTF-8"?><svg id="Camada_1" xmlns="http://www.w3.org/2000/svg" viewBox="0 0 1976.2838135 629.5999756"><defs><style>.cls-1{isolation:isolate;}.cls-2{fill:#f7c200;}.cls-2,.cls-3,.cls-4{stroke-width:0px;}.cls-3,.cls-5{fill:#fff;}.cls-5,.cls-6,.cls-7{stroke:#000;stroke-miterlimit:10;stroke-width:4.7413998px;}.cls-4,.cls-6{fill:#28166f;}.cls-7{fill:#00923f;}</style></defs><rect class="cls-7" x="1453.2838135" width="523" height="629.5999756"/><rect class="cls-6" width="1453.2838135" height="314.7999878"/><rect class="cls-5" y="314.7999878" width="1453.2838135" height="314.7999878"/><g class="cls-1"><path class="cls-3" d="M322.4920654,242.6999969h-16l-28.2999878-71.9000092-28.0000153,71.8999939h-16l-62.0999908-159h-14.8000031v-10.4999847h60.7999878v10.5h-14l44.8000031,114.9000092,20.3000183-51.1000061-25.0000153-63.8000031h-14v-10.5h96.5999908v10.5h-17.7999878l-17.3000183,44.5999908,28.8000183,72.1000061,45.5999756-116.6999969h-18v-10.5h49.1000061v10.5h-12.5l-62.1999817,159ZM283.9920654,108.6999969l10-25h-19.7999878l9.7999878,25Z"/><path class="cls-3" d="M450.3920593,238.3999939h-58.7999878v-10.5h14.7999878v-87.6000061h-16.5v-8l36-9.8000031h9.7999878v105.4000092h14.7999878l-.0999756,10.5h0ZM419.8920593,61.7000008c9.7999878,0,17.7999878,7.9999962,17.7999878,17.7999992-.7999878,23.5999985-34.7999878,23.5999985-35.5,0-.0999756-9.8000031,7.9000244-17.7999992,17.7000122-17.7999992Z"/><path class="cls-3" d="M518.7920532,238.3999939h-58.7999878v-10.5h14.7999878V70.3999939h-17.8999939v-6.7999992l36-9.7999992h11v173.9999924h14.8000183l.0999756,10.6000061h0ZM581.8920898,238.3999939h-39.7999878l-37.6000366-57.1000061,39.1000366-45.8000031h-15v-10.4999847h49.7999878v10.5h-13.7999878l-31.5,35.5,38.2999878,56.8000031h10.5v10.5999908Z"/><path class="cls-3" d="M648.1920776,238.3999939h-58.7999878v-10.5h14.7999878v-87.6000061h-16.5v-8l36-9.8000031h9.7999878v105.4000092h14.7999878l-.0999756,10.5h0ZM617.6920776,61.7000008c9.7999878,0,17.7999878,7.9999962,17.7999878,17.7999992-.7999878,23.5999985-34.7999878,23.5999985-35.5,0-.0999756-9.8000031,7.9000244-17.7999992,17.7000122-17.7999992Z"/><path class="cls-3" d="M845.9920654,238.3999939h-118.1999512v-10.5h19V83.6999969h-19v-10.5h70.0999756v10.5h-18.7999878v140h53.2999878v-18.5h13.5l.0999756,33.1999969h0Z"/><path class="cls-3" d="M853.4920654,181.8000031c0-34.8000031,24.2999878-59.8000031,57.7999878-59.8000031,77.2000122.1999969,77.2000122,119.3000031,0,119.6999969-33.499939,0-57.7999878-25.3000031-57.7999878-59.8999939ZM885.2921143,181.8000031c0,27.8000031,10.7999878,47.3000031,26,47.3000031,34.7999878.3000031,34.5999756-95.3000031,0-94.8999939-15.2000122.0999908-26,19.5999908-26,47.5999908Z"/><path class="cls-3" d="M1085.2921143,135.5h-11l-40.3000488,106.1999969h-9.7999268l-42.7999878-106.1999969h-6.7999878v-10.5h48.5999756v10.5h-10.7999878l25.2999878,62.3000031,24-62.3000031h-15v-10.5h38.5999756v10.5h0Z"/><path class="cls-3" d="M1197.2921143,224.8999939c-24.5,13.8000031-33.3000488,16.8000031-50.8000488,16.8000031-33.5999756,0-55.8000488-23.8000031-55.8000488-59.3000031-2.0999756-75.0999985,105.0001221-80.9000015,105.7000732-14.8000031v9.5h-74.9000244c0,31,14,50.3000031,36.5999756,50.3000031,9.3000488,0,14.3000488-2,33.5999756-13.5l5.6000977,11ZM1165.1921387,164.3000031v-6c0-15-7.3000488-25.5-17.5-25.5-13.3000488,0-23.8000488,12.5-26,31.5h43.5Z"/><path class="cls-3" d="M1223.9920654,240.6999969h-12.3000488v-35.5h13.8000488v6.8000031c0,10,14,19,29.5,19,12,0,19.5-5.3000031,19.5-13.3000031,0-10-6.3000488-15-30.8000488-24.3000031-24.3000488-9.3000031-33.3000488-19.3000031-33.3000488-36.8000031,0-20.8000031,16-34.5,40.0999756-34.5,12.3000488,0,20.8000488,2.5,28,8.5l1.5-9h13l-6.3000488,36h-12.8000488c1-2.8000031,1.5-6,1.5-8.3000031,0-8.5-12.3000488-16.5-24.8000488-16.5-10.8000488,0-18,5.5-18,14,0,9.3000031,4,12.3000031,30.5999756,22.8000031,24.5,9.8000031,32.8000488,19.3000031,32.8000488,37.3000031,0,22-14.5,34.8000031-39.8000488,34.8000031-14.5,0-24.8000488-3.1999969-32.3000488-10l.1003418,9h0Z"/></g><polygon class="cls-2" points="1794.6424561 341.446167 1927.3348389 245.039444 1927.3344727 245.0395203 1927.3348389 245.0393219 1763.3178711 245.0393219 1712.6339111 89.0499878 1712.6337891 89.0503845 1712.6337891 89.0499878 1661.9498291 245.0393219 1497.9328613 245.0393219 1497.9332275 245.0395203 1497.9328613 245.039444 1630.6252441 341.446167 1579.9412842 497.4355469 1579.9415283 497.4352722 1579.9414062 497.4356079 1712.6337891 401.0289001 1845.3262939 497.4356079 1845.3260498 497.4351807 1845.326416 497.4355469 1794.6424561 341.446167"/><path class="cls-4" d="M311.9701233,547.8887329v4.9614258h-86.2431641v-4.9425049c5.1881409-.1287231,9.3996887-1.0443115,12.6090546-2.7657471,2.4082947-1.2376709,4.3355255-3.3659668,5.7813721-6.3769531,1.0581055-2.1256104,1.5883484-7.7089233,1.5883484-16.7437744v-133.5515442l-75.1453247,164.3805237h-3.46875l-76.301445-163.1846313v126.9064331c0,8.8596802.2381668,14.3088989.7219086,16.3463135,1.2518082,4.4311523,3.9754105,8.0404053,8.1660767,10.8289795,2.7609863,1.8406982,6.5686264,3.0689087,11.4013672,3.6954956v5.4074097h-50.2795677v-5.3562012c1.9737244-.3220825,3.8773766-.8179321,5.7133217-1.4876099,3.7561035-1.3737793,6.5989532-3.2097168,8.5261841-5.5152588,1.9245377-2.3028564,3.4172134-5.5361328,4.4800415-9.7005005.1916733-.9742432.2873459-5.4923706.2873459-13.5529785v-72.6669617h-.0724258l.0141449-14.5716553c0-7.8248291-.5373077-12.6063538-1.167923-14.4914856-3.6533585-10.9388428-17.3441048-13.625061-17.3441048-13.625061,0,0,4.5433693-7.3276062,14.9543419-14.6296082,10.7475128-7.2319336,28.1077805-14.4409485,54.6666336-14.492157.5491028,0,1.0769806-.0067139,1.5930634-.0161743l55.0169678,118.7117615,35.4798584-79.2588501c1.4761658-3.298645-.0259399-7.1733093-3.3427582-8.605011-2.9247131-1.2639465-5.181076-1.7099609-5.181076-1.7099609,0,0,2.4598236-3.9615784,7.8975983-8.9607544,9.3481445-8.3314514,27.9373169-19.5627136,60.5951996-20.2661133h6.7785034c1.1072998.0256042,2.139801.0397644,3.1207581.0471802v149.3184204c0,9.2153931.5302429,14.9732056,1.5907288,17.2740479,1.0584412,2.305542,3.2258606,4.3193359,6.5009155,6.0474854,2.8495789,1.50177,6.5379639,2.3499756,11.0628052,2.5460205Z"/><path class="cls-4" d="M427.2046814,538.835022c-3.854126,5.1480713-13.854126,12.9735718-27.5724792,13.5880127-6.6316223.2937622-11.8221436-1.432373-15.5570068-4.2937622-3.7328796-2.8586426-6.0171814-7.187439-6.8442078-12.9876709-14.1879578,11.5209351-26.9256897,17.2814331-38.2078247,17.2814331-6.636322,0-12.153595-2.0043945-16.5497437-6.010437-4.3985291-4.0040283-6.5966187-11.5883179-6.5966187-17.6149292,0-8.1644287,6.832428-39.5000916,61.3518372-43.3821716v-12.8751831c0-8.0848999-.6798096-13.0948181-1.4320374-15.2763977-2.9034729-8.4379272-11.0975037-8.3604431-14.3725586-7.8396301-12.4898071,1.9902344-8.3388977,20.5254822-8.3388977,23.5762024v.0464783c-.0023499,2.461853-1.3151245,4.7748108-3.4876099,5.9356689-12.8074646,6.8418274-23.3026733,5.0638123-27.6732178,1.6681824-2.4433289-2.5507812-3.6836853-5.4425049-3.6836853-8.680481,0-5.4936829,2.3661804-10.7380981,7.0941467-15.7372437,4.730011-4.9937439,11.3242493-8.8287048,19.7870789-11.4993896,8.4628601-2.6720581,17.255188-4.006073,26.3840332-4.006073,11.0321655,0,19.7662048,2.1559753,26.1943665,6.4658813,6.4308472,4.3126221,10.6002808,8.9843445,12.508667,14.0178528,1.1608276,3.2049866,1.7426147,10.5696411,1.7426147,22.0879211v41.5414734c0,4.8839722.2055054,7.9534912.6211853,9.2127686.4136963,1.2592163,1.0372314,2.1956787,1.8666077,2.8027344.8290405.6144409,1.7843933.8994141,2.863739.918335,2.9172974.0484619,5.8652344-.9136353,7.9326172-1.7868042l1.9689941,2.847229ZM377.2309875,493.0840149c-13.7277832,1.0698853-25.3818054,6.8654175-29.915741,16.4500427-2.2398682,4.734375-5.8278809,20.881897,11.8173828,23.6341553,4.0993958.6393433,11.3336792-.6474609,18.0983582-6.3816528v-33.7025452Z"/><path class="cls-4" d="M507.3707275,427.6072083v13.4525757h-31.8942261v75.8571472c0,7.1342163.3598022,11.737854,1.0769958,13.805603.7192078,2.0717163,1.9875183,3.7439575,3.807312,5.0220337,1.8197632,1.2753906,3.4943542,1.9127808,5.0291138,1.9127808,6.2250366,0,12.1162109-4.3584595,17.6708679-13.0786743l4.3099365,2.9085693c-7.7574463,16.9095459-20.3526917,25.362915-37.7830505,25.362915-8.5281982,0-15.7321777-2.178833-21.6230164-6.5406494-5.8888245-4.3583984-9.6496582-9.2241821-11.2777405-14.5965576-.960083-2.994812-1.4367676-11.0979004-1.4367676-24.3092651v-66.335144h-1.0651855v-.0087585h-16.4631653v-13.4525757h16.4631653v-.3692017c0-6.1270142-.4763184-9.8689575-1.0368652-11.3471375-3.2494507-8.5612183-15.4263-10.6659851-15.4263-10.6659851,0,0,18.5820923-22.7980347,57.5492249-22.7980347h.2054749v45.1803589h31.8942261Z"/><path class="cls-4" d="M565.6311035,441.0597839c10.0302734,0,19.3622437,2.3803406,27.9956055,7.1430054,8.6333008,4.7653503,15.1901245,11.5324097,19.6705322,20.3011475,4.4823608,8.7714233,6.7225342,18.3735657,6.7225342,28.8084717,0,15.0453186-4.1532593,27.6354675-12.4550781,37.76651-10.034668,12.2492676-23.8864746,18.371582-41.5643921,18.371582-17.3511963,0-30.7121582-5.592041-40.0838623-16.7835693-9.3737793-11.1881104-14.0619812-24.1576538-14.0619812-38.9017639,0-15.1968994,4.7909851-28.4480286,14.3702087-39.7520447,9.5772095-11.3026733,22.711792-16.9533386,39.4064331-16.9533386ZM566.121582,449.1116638c-4.192688,0-7.7901611,1.4552917-10.7893066,4.3658447-3.0038452,2.9125671-4.9779053,8.658905-5.9215088,17.2383118-.9459229,8.5821228-1.4178467,20.5113525-1.4178467,35.7837219,0,8.0915833.574646,15.6502991,1.7260742,22.6808167.9041748,5.3710327,2.8358154,9.4539185,5.7979126,12.249939,2.9594116,2.7980347,6.3301392,4.1973877,10.1141968,4.1973877,3.7001343,0,6.781189-.9432373,9.2477417-2.8357544,3.2073364-2.5696411,5.3444214-6.1620483,6.4143677-10.7751465,1.6445923-7.1807251,2.4665527-21.6984863,2.4665527-43.5505981,0-12.8522644-.7825317-21.6796265-2.3425903-26.4820251-1.5627441-4.8024292-3.8659668-8.2964478-6.9075317-10.4928589-2.1394653-1.585968-4.9331665-2.3796387-8.3880615-2.3796387Z"/><path class="cls-4" d="M891.8892822,493.8641968v3.9130859c-5.7510986.355072-9.7571411,1.0766296-12.0181885,2.1674194-2.2637939,1.0961914-4.0081177,2.910553-5.2322998,5.4472046-.6912231,1.3407288-1.0348511,4.6205139-1.0348511,9.8366089v29.8244629c-8.6407471,3.5432129-17.5819092,6.3325195-26.8250122,8.3671875.0087891.0067139.0182495.0161743.0276489.0256348-.4251099.0821533-.8314209.15625-1.2167969.2243042-1.0301514.2196655-2.0603027.4385986-3.0978394.6380615-10.7097778,2.0670166-21.8170776,3.1018677-33.3184814,3.1153564v-.0673828c-1.805603.0397949-3.6186523.0673828-5.4404297.0673828-18.4928589,0-33.8494263-2.3149414-46.0656738-6.9395142-12.21698-4.6252441-22.9968262-10.7077637-32.3381958-18.2381592-9.3434448-7.536438-16.6501465-16.0148315-21.920166-25.4451599-6.7084351-12.1603394-10.0603027-25.7719116-10.0603027-40.8401184,0-24.9782715,8.84552-46.3607788,26.5285645-64.1576233-.0027466.0026855-.0047607.0047302-.0074463.0067444,7.8161011-8.282959,17.0335083-15.1551208,27.6665039-20.5975952,16.5308838-8.4581299,34.0878906-12.6885681,52.6790771-12.6885681,8.906189,0,18.1405029,1.1635437,27.696167,3.4711304,26.5285034,7.677948,39.3059692,26.5332336,45.3393555,40.8077698,3.0884399,7.4704285,5.7321777,17.4862671,3.5061035,27.0452881-1.7490234,7.512207-8.0377197,13.2861633-15.741272,13.6742554-.3220215.0161743-.6467896.0228882-.9741821.0228882-11.2211914,0-20.1791992-9.6964722-18.9483032-21.167572.9317627-8.6777649,7.8416748-15.7136536,16.5006104-16.7997131,3.7655029-.47229,7.34375.165741,10.4692383,1.6163025-4.4851074-9.8056335-10.7589722-17.7530518-18.838501-23.8207703-11.4973755-8.6333008-24.529541-12.9533386-39.09375-12.9533386-12.1697998,0-23.3330078,3.2171021-33.489624,9.6499939-10.1560059,6.4308472-17.5839844,14.847229-22.2772217,25.2437134-1.1676025,2.5743408-2.2119141,5.2113647-3.1531372,7.8995972-3.9831543,13.4155273-5.9754028,27.1807251-5.9754028,41.29422,0,17.1824036,2.2024536,32.2485962,6.6107788,45.2019348,4.4055786,12.9519653,11.5202637,22.4685669,21.3427124,28.5490723,9.8224487,6.079834,21.4902954,9.1184082,35.0008545,9.1184082,4.6925659,0,9.5091553-.4621582,14.4429321-1.3865356,4.4312134-.8320923,8.9675293-2.0185547,13.5900269-3.5250244v-27.2366333c0-5.6412354-.4230957-9.2895508-1.2659302-10.9455872-.8435669-1.6560669-2.5858154-3.1557922-5.2322998-4.4965515-2.6444092-1.3367004-5.8466797-2.0090942-9.6027832-2.0090942h-4.0249634v-3.9130859h75.7924805ZM747.144165,438.6889038c.4736938-2.6181641,1.0389404-5.1904907,1.697876-7.7183838-.6589355,2.5278931-1.2241821,5.1002197-1.697876,7.7183838Z"/><path class="cls-4" d="M994.1071777,453.6715393c0,5.3299561-1.4061279,9.46875-4.2163086,12.412323-2.8121948,2.943573-6.2111816,4.4150085-10.1889648,4.4150085-4.5875244,0-8.565918-1.3528748-11.9407349-4.057251-3.3734131-2.7057495-5.3656616-4.2162781-5.9706421-4.5369873-.8664551-.475647-1.8615723-.7141418-2.9833374-.7141418-2.5110474,0-4.890686.8758545-7.1403198,2.6248779-3.548584,2.7057495-6.2300415,6.56427-8.0471191,11.5775757-2.7704468,7.7170105-4.1509399,16.2290344-4.1509399,25.5401306v25.6614685l.1286621,6.6807861c0,4.5369873.3012085,7.4421387.9082031,8.7128296,1.0375977,2.149231,2.5717163,3.7217407,4.6063843,4.7161865,2.0326538.9951172,5.4707642,1.6115723,10.317688,1.8500977v4.2957153h-65.5421753v-4.2957153c5.2767334-.397522,8.8435059-1.730896,10.7050781-3.9993286,1.8594971-2.2678223,2.7913208-8.2520142,2.7913208-17.9605713l-.3948364-40.7236023c0-6.1269836-.4251099-9.8716431-.9223633-11.3471375-2.880249-8.5632324-13.6742554-10.6659851-13.6742554-10.6659851,0,0,23.8046265-22.7980347,51.0177002-22.7980347v.198761h.0559082v25.3016357c8.0471191-11.5371094,15.0991821-19.193512,21.1561279-22.9758911,6.0548706-3.7769775,11.8969116-5.6688538,17.5219727-5.6688538,4.8441772,0,8.7148438,1.3737488,11.6159668,4.1179199,2.8963623,2.7474976,4.3469849,6.6248779,4.3469849,11.6381836Z"/><path class="cls-4" d="M1047.9848633,441.0597839c10.0299072,0,19.3619385,2.3803406,27.9952393,7.1430054,8.6333008,4.7653503,15.1901855,11.5324097,19.6705322,20.3011475,4.4824219,8.7714233,6.7225342,18.3735657,6.7225342,28.8084717,0,15.0453186-4.1529541,27.6354675-12.4547119,37.76651-10.0354004,12.2492676-23.8868408,18.371582-41.5650635,18.371582-17.3508301,0-30.711792-5.592041-40.0835571-16.7835693-9.3737183-11.1881104-14.0616455-24.1576538-14.0616455-38.9017639,0-15.1968994,4.7902832-28.4480286,14.3702393-39.7520447,9.5772095-11.3026733,22.711731-16.9533386,39.4064331-16.9533386ZM1048.4753418,449.1116638c-4.1933594,0-7.7905273,1.4552917-10.7900391,4.3658447-3.00354,2.9125671-4.9775391,8.658905-5.9207764,17.2383118-.9466553,8.5821228-1.4182129,20.5113525-1.4182129,35.7837219,0,8.0915833.574707,15.6502991,1.7260742,22.6808167.9041748,5.3710327,2.8358154,9.4539185,5.7976074,12.249939,2.9597168,2.7980347,6.3304443,4.1973877,10.1148682,4.1973877,3.6994629,0,6.7805176-.9432373,9.2476807-2.8357544,3.2070312-2.5696411,5.3441162-6.1620483,6.4140625-10.7751465,1.6446533-7.1807251,2.4665527-21.6984863,2.4665527-43.5505981,0-12.8522644-.7822266-21.6796265-2.3425293-26.4820251-1.5631104-4.8024292-3.8659668-8.2964478-6.9072266-10.4928589-2.1397705-1.585968-4.9338379-2.3796387-8.3880615-2.3796387Z"/><path class="cls-4" d="M1189.8779297,518.1067505c0,5.8648682-1.5933838,11.617981-4.7822266,17.2598877-3.1900635,5.640564-7.6893311,9.9645996-13.4963379,12.9728394-5.8070068,3.0062256-12.225708,4.5106812-19.2595215,4.5106812-5.4794922,0-12.800415-1.5792236-21.9592285-4.7370605-2.453125-.8266602-4.1300049-1.2403564-5.029541-1.2403564-2.6976318,0-4.9492188,1.8804321-6.7460938,5.6392212h-4.0499268l-1.9625244-37.9019165h4.1717529c3.6793213,9.9268799,8.7297363,17.3717041,15.151123,22.335144,6.4207764,4.9634399,12.4918213,7.4441528,18.2172852,7.4441528,3.9245605,0,7.1335449-1.1069336,9.628418-3.3255615,2.494873-2.2172852,3.7419434-4.9082031,3.7419434-8.06604,0-3.6112671-1.2261963-6.7299805-3.6813965-9.3649902-2.4523926-2.6303101-7.9326172-6.6148071-16.4351807-11.95755-12.5134277-7.9696655-20.6090088-14.0616455-24.2904053-18.2731934-5.3986816-6.166748-8.0963135-12.9735413-8.0963135-20.4183655,0-8.1239624,3.043335-15.4724426,9.1379395-22.0549011,6.092041-6.5804138,14.9051514-9.8689575,26.4349365-9.8689575.3199463,0,.6380615.0181885.9553223.0256042,2.0441895.1030884,7.1599121.5955811,13.2679443,2.8842773,1.2774658.5167542,29.5462646,12.1771851,21.1373291,30.9934082-1.6655273,3.7251282-5.6014404,5.9841614-9.6304932,5.3373718-.0491943-.0073853-.0983887-.0168457-.1447754-.0235596-5.050415-.8711548-9.026123-5.0456543-9.640625-10.1330566-.1704102-1.4040833-.0842285-2.763031.2034912-4.0458069,0-.0047302.0020752-.0094604.0047607-.0161743.0842285-.3813477.1865234-.7572937.3078613-1.1238098,1.9760742-7.9514771-1.9107666-11.5088501-4.4143066-12.9263916-3.4926758-1.6708679-6.9772949-2.5116882-10.4511719-2.5116882-3.3538818,0-6.2131348,1.0328369-8.5841064,3.1018982-2.3735352,2.067688-3.557373,4.4547729-3.557373,7.1618652,0,2.0326538.8153076,3.987854,2.4525146,5.8655701,2.6140137,3.0857239,9.9370117,8.3692017,21.9571533,15.8517761,12.0229492,7.4839172,19.9346924,13.8372803,23.7392578,19.0628052,3.8005371,5.2275696,5.7025146,11.0742798,5.7025146,17.5428772Z"/><path class="cls-4" d="M1277.237793,518.1067505c0,5.8648682-1.5933838,11.617981-4.7821045,17.2598877-3.1901855,5.640564-7.6894531,9.9645996-13.49646,12.9728394-5.8068848,3.0062256-12.225708,4.5106812-19.2595215,4.5106812-5.4794922,0-12.800415-1.5792236-21.9592285-4.7370605-2.453125-.8266602-4.1300049-1.2403564-5.0294189-1.2403564-2.6977539,0-4.9493408,1.8804321-6.7462158,5.6392212h-4.0498047l-1.9626465-37.9019165h4.1717529c3.6793213,9.9268799,8.7297363,17.3717041,15.151123,22.335144,6.4207764,4.9634399,12.4918213,7.4441528,18.2172852,7.4441528,3.9245605,0,7.1335449-1.1069336,9.628418-3.3255615,2.494873-2.2172852,3.7419434-4.9082031,3.7419434-8.06604,0-3.6112671-1.2261963-6.7299805-3.6812744-9.3649902-2.4523926-2.6303101-7.9326172-6.6148071-16.4353027-11.95755-12.5133057-7.9696655-20.6090088-14.0616455-24.2902832-18.2731934-5.3986816-6.166748-8.0964355-12.9735413-8.0964355-20.4183655,0-8.1239624,3.043335-15.4724426,9.1379395-22.0549011,6.092041-6.5804138,14.9052734-9.8689575,26.4349365-9.8689575.3200684,0,.6380615.0181885.9553223.0256042,2.0441895.1030884,7.1599121.5955811,13.2680664,2.8842773,1.2773438.5167542,29.5461426,12.1771851,21.137207,30.9934082-1.6655273,3.7251282-5.6014404,5.9841614-9.6304932,5.3373718-.0490723-.0073853-.0982666-.0168457-.1447754-.0235596-5.050415-.8711548-9.026123-5.0456543-9.640625-10.1330566-.1704102-1.4040833-.0842285-2.763031.2034912-4.0458069,0-.0047302.0020752-.0094604.0047607-.0161743.0842285-.3813477.1866455-.7572937.3078613-1.1238098,1.9760742-7.9514771-1.9107666-11.5088501-4.4143066-12.9263916-3.4926758-1.6708679-6.9772949-2.5116882-10.4510498-2.5116882-3.3538818,0-6.2132568,1.0328369-8.5841064,3.1018982-2.3736572,2.067688-3.557373,4.4547729-3.557373,7.1618652,0,2.0326538.8151855,3.987854,2.4523926,5.8655701,2.6141357,3.0857239,9.9370117,8.3692017,21.9571533,15.8517761,12.0229492,7.4839172,19.9346924,13.8372803,23.7392578,19.0628052,3.8005371,5.2275696,5.7025146,11.0742798,5.7025146,17.5428772Z"/><path class="cls-4" d="M1338.095459,441.0597839c10.0300293,0,19.3619385,2.3803406,27.9952393,7.1430054,8.6333008,4.7653503,15.1901855,11.5324097,19.6705322,20.3011475,4.4824219,8.7714233,6.7226562,18.3735657,6.7226562,28.8084717,0,15.0453186-4.1529541,27.6354675-12.454834,37.76651-10.0352783,12.2492676-23.8867188,18.371582-41.5650635,18.371582-17.3508301,0-30.711792-5.592041-40.0834961-16.7835693-9.3737793-11.1881104-14.0616455-24.1576538-14.0616455-38.9017639,0-15.1968994,4.7902832-28.4480286,14.3702393-39.7520447,9.5771484-11.3026733,22.711792-16.9533386,39.4063721-16.9533386ZM1338.5859375,449.1116638c-4.1933594,0-7.7904053,1.4552917-10.789917,4.3658447-3.00354,2.9125671-4.9776611,8.658905-5.9215088,17.2383118-.9459229,8.5821228-1.4176025,20.5113525-1.4176025,35.7837219,0,8.0915833.574707,15.6502991,1.7261963,22.6808167.9041748,5.3710327,2.8356934,9.4539185,5.7974854,12.249939,2.9597168,2.7980347,6.3304443,4.1973877,10.1148682,4.1973877,3.699585,0,6.7805176-.9432373,9.2478027-2.8357544,3.2070312-2.5696411,5.3441162-6.1620483,6.4139404-10.7751465,1.6446533-7.1807251,2.4665527-21.6984863,2.4665527-43.5505981,0-12.8522644-.7821045-21.6796265-2.3425293-26.4820251-1.5631104-4.8024292-3.8659668-8.2964478-6.9072266-10.4928589-2.1397705-1.585968-4.9337158-2.3796387-8.3880615-2.3796387Z"/></svg>